<svg height="512pt" viewBox="0 -54 512 511" width="512pt" xmlns="http://www.w3.org/2000/svg"><path d="m469.082031 335.269531h-426.164062c-11.152344 0-20.195313-9.042969-20.195313-20.199219v-286.800781c0-11.152343 9.042969-20.195312 20.195313-20.195312h426.164062c11.152344 0 20.195313 9.042969 20.195313 20.195312v286.800781c0 11.15625-9.042969 20.199219-20.195313 20.199219zm0 0" fill="#636363"/><path d="m469.082031 8.074219h-17.167969c11.152344 0 20.195313 9.042969 20.195313 20.195312v286.800781c0 .804688-.050781 1.59375-.148437 2.367188-.179688 1.445312-1.398438 2.578125-2.855469 2.582031-.007813 0-.015625 0-.023438 0h-426.164062c-11.152344 0-20.195313-9.042969-20.195313-20.199219v14.160157c0 11.757812 9.53125 21.289062 21.289063 21.289062h425.070312c11.152344 0 20.195313-9.042969 20.195313-20.199219v-286.800781c0-11.152343-9.042969-20.195312-20.195313-20.195312zm0 0" fill="#494949"/><path d="m53.019531 42.410156h405.964844v258.523438h-405.964844zm0 0" fill="#ddf5ff"/><path d="m124.71875 105.019531h262.5625v50.492188h-262.5625zm0 0" fill="#c9d2e3"/><path d="m306.492188 188.839844v34.332031h-100.984376v-34.332031zm0 0" fill="#7ae57d"/><path d="m484.230469 395.859375h-456.460938c-11.152343 0-20.195312-9.042969-20.195312-20.195313v-20.195312c0-11.15625 9.042969-20.199219 20.195312-20.199219h456.460938c11.152343 0 20.195312 9.042969 20.195312 20.199219v20.195312c0 11.152344-9.042969 20.195313-20.195312 20.195313zm0 0" fill="#636363"/><path d="m484.230469 335.269531h-10.101563c5.578125 0 10.101563 4.519531 10.101563 10.097657v22.21875c0 5.574218-4.523438 10.097656-10.101563 10.097656h-446.359375c-11.152343 0-20.195312-9.042969-20.195312-20.195313v18.175781c0 11.15625 9.042969 20.199219 20.195312 20.199219h456.460938c.722656 0 1.40625-.039062 2.054687-.105469 10.1875-1.03125 18.140625-9.632812 18.140625-20.09375v-20.195312c0-11.15625-9.042969-20.199219-20.195312-20.199219zm0 0" fill="#494949"/><path d="m53.019531 101.148438c-4.183593 0-7.574219 3.390624-7.574219 7.574218v192.210938c0 4.183594 3.390626 7.574218 7.574219 7.574218h405.964844c4.179687 0 7.574219-3.390624 7.574219-7.574218v-258.523438c0-4.183594-3.394532-7.574218-7.574219-7.574218h-405.964844c-4.183593 0-7.574219 3.390624-7.574219 7.574218v30.757813c0 4.183593 3.390626 7.574219 7.574219 7.574219 4.179688 0 7.574219-3.390626 7.574219-7.574219v-23.183594h390.816406v243.375h-390.816406v-184.636719c0-4.183594-3.394531-7.574218-7.574219-7.574218zm0 0"/><path d="m394.855469 155.511719v-50.492188c0-4.183593-3.390625-7.574219-7.574219-7.574219h-262.5625c-4.183594 0-7.574219 3.390626-7.574219 7.574219v50.492188c0 4.183593 3.390625 7.574219 7.574219 7.574219h262.5625c4.183594 0 7.574219-3.390626 7.574219-7.574219zm-15.148438-7.574219h-247.414062v-35.34375h247.414062zm0 0"/><path d="m205.507812 181.265625c-4.183593 0-7.574218 3.390625-7.574218 7.574219v34.335937c0 4.179688 3.390625 7.570313 7.574218 7.570313h100.984376c4.183593 0 7.574218-3.390625 7.574218-7.570313v-34.335937c0-4.183594-3.390625-7.574219-7.574218-7.574219zm93.410157 34.335937h-85.835938v-19.1875h85.835938zm0 0"/><path d="m493.015625 329.128906c2.433594-4.125 3.835937-8.929687 3.835937-14.058594v-125.726562c0-4.183594-3.390624-7.574219-7.574218-7.574219s-7.574219 3.390625-7.574219 7.574219v125.726562c0 6.960938-5.664063 12.625-12.621094 12.625h-426.164062c-6.960938 0-12.621094-5.664062-12.621094-12.625v-286.800781c0-6.960937 5.664063-12.621093 12.621094-12.621093h426.164062c6.960938 0 12.621094 5.664062 12.621094 12.621093v125.730469c0 4.183594 3.390625 7.574219 7.574219 7.574219s7.574218-3.390625 7.574218-7.574219v-125.730469c0-15.3125-12.457031-27.769531-27.769531-27.769531h-426.164062c-15.3125 0-27.769531 12.460938-27.769531 27.769531v286.800781c0 5.128907 1.402343 9.933594 3.835937 14.058594-11.019531 3.683594-18.984375 14.09375-18.984375 26.335938v20.199218c0 15.3125 12.457031 27.769532 27.769531 27.769532h99.496094c4.179687 0 7.574219-3.390625 7.574219-7.574219s-3.394532-7.574219-7.574219-7.574219h-99.496094c-6.960937 0-12.621093-5.664062-12.621093-12.621094v-20.199218c0-6.960938 5.664062-12.621094 12.621093-12.621094h456.460938c6.960937 0 12.621093 5.664062 12.621093 12.621094v20.199218c0 6.960938-5.664062 12.621094-12.621093 12.621094h-321.578125c-4.183594 0-7.574219 3.390625-7.574219 7.574219s3.390625 7.574219 7.574219 7.574219h321.578125c15.3125 0 27.769531-12.457032 27.769531-27.769532v-20.199218c0-12.242188-7.964844-22.652344-18.984375-26.335938zm0 0"/></svg>