<svg height="511pt" viewBox="0 -15 511.99955 511" width="511pt" xmlns="http://www.w3.org/2000/svg"><path d="m195.972656 148.09375c-97.101562 168.183594 9.59375 292.355469 9.59375 292.355469s160.882813 30.316406 257.984375-137.867188c97.101563-168.183593-9.59375-292.355469-9.59375-292.355469s-160.882812-30.316406-257.984375 137.867188zm0 0" fill="#ff933b"/><path d="m453.957031 10.226562s-9.871093-1.855468-26.1875-2.101562c25.429688 42.566406 67.742188 144.183594-5.316406 270.726562-73.0625 126.546876-182.21875 140.710938-231.796875 139.96875 8.367188 14.007813 14.910156 21.628907 14.910156 21.628907s160.882813 30.316406 257.984375-137.867188c97.101563-168.183593-9.59375-292.355469-9.59375-292.355469zm0 0" fill="#f27d27"/><path d="m155.421875 279.75 214.386719 123.777344c-19.730469 12.558594-39.445313 21.222656-58.019532 27.128906l-150.851562-87.09375c-4.175781-19.039062-6.527344-40.445312-5.515625-63.8125zm0 0" fill="#ddf5ff"/><path d="m289.714844 47.148438 214.386718 123.777343c1.011719-23.371093-1.339843-44.773437-5.515624-63.8125l-150.851563-87.09375c-18.574219 5.902344-38.289063 14.566407-58.019531 27.128907zm0 0" fill="#ddf5ff"/><path d="m498.585938 107.113281-41.085938-23.722656c4.171875 19.039063 6.523438 40.445313 5.511719 63.8125l41.089843 23.722656c1.011719-23.371093-1.339843-44.773437-5.515624-63.8125zm0 0" fill="#c1e9f4"/><path d="m311.789062 430.65625-41.085937-23.722656c18.570313-5.902344 38.285156-14.570313 58.015625-27.128906l41.09375 23.722656c-19.734375 12.558594-39.449219 21.222656-58.023438 27.128906zm0 0" fill="#c1e9f4"/><path d="m367.480469 192.316406-27.980469-16.15625c-7.726562-4.460937-10.375-14.339844-5.914062-22.066406 4.460937-7.726562 14.34375-10.375 22.070312-5.914062l27.980469 16.15625c7.726562 4.460937 10.375 14.339843 5.914062 22.066406-4.460937 7.726562-14.339843 10.375-22.070312 5.914062zm0 0" fill="#636363"/><path d="m389.519531 170.214844c-.132812.261718-.253906.523437-.402343.78125-4.460938 7.726562-14.339844 10.375-22.066407 5.914062l-34.726562-20.046875c-2.507813 7.179688.347656 15.355469 7.175781 19.296875l27.980469 16.15625c7.730469 4.460938 17.609375 1.8125 22.070312-5.914062 2.996094-5.191406 2.773438-11.347656-.03125-16.1875zm0 0" fill="#494949"/><path d="m320.023438 274.511719-27.980469-16.152344c-7.726563-4.460937-17.609375-1.816406-22.070313 5.914063-4.460937 7.726562-1.8125 17.605468 5.914063 22.066406l27.980469 16.15625c7.730468 4.460937 17.609374 1.8125 22.070312-5.914063 4.460938-7.726562 1.816406-17.609375-5.914062-22.070312zm0 0" fill="#636363"/><path d="m335.675781 247.40625-27.984375-16.15625c-7.726562-4.460938-10.371094-14.339844-5.910156-22.066406 4.460938-7.726563 14.339844-10.375 22.066406-5.914063l27.984375 16.15625c7.726563 4.460938 10.375 14.339844 5.910157 22.066407-4.460938 7.726562-14.339844 10.375-22.066407 5.914062zm0 0" fill="#636363"/><path d="m357.710938 225.304688c-.132813.261718-.25.523437-.398438.78125-4.460938 7.726562-14.34375 10.375-22.070312 5.914062l-34.722657-20.046875c-2.507812 7.179687.34375 15.355469 7.175781 19.296875l27.980469 16.15625c7.726563 4.460938 17.609375 1.8125 22.070313-5.914062 2.996094-5.191407 2.769531-11.347657-.035156-16.1875zm0 0" fill="#494949"/><path d="m325.90625 280.394531c-.132812.261719-.253906.523438-.398438.78125-4.460937 7.726563-14.34375 10.375-22.070312 5.914063l-34.722656-20.046875c-2.507813 7.179687.34375 15.355469 7.171875 19.296875l27.984375 16.15625c7.726562 4.460937 17.605468 1.8125 22.066406-5.914063 3-5.191406 2.773438-11.347656-.03125-16.1875zm0 0" fill="#494949"/><path d="m68.15625 253.609375h60.582031v220.117187h-60.582031zm0 0" fill="#636363"/><path d="m107.535156 253.609375v183.769531c0 7.804688-6.328125 14.132813-14.136718 14.132813h-25.242188v22.214843h60.582031v-220.117187zm0 0" fill="#494949"/><path d="m7.574219 272.792969h60.582031v181.75h-60.582031zm0 0" fill="#636363"/><path d="m47.960938 272.792969v145.398437c0 7.808594-6.328126 14.136719-14.136719 14.136719h-26.25v22.214844h60.582031v-181.75zm0 0" fill="#494949"/><path d="m237.789062 338.425781h-109.050781v50.484375h218.097657v-50.484375zm0 0" fill="#c9d2e3"/><path d="m316.546875 338.425781v10.097657c0 11.152343-9.042969 20.191406-20.195313 20.191406h-117.128906c-11.152344 0-20.191406-9.039063-20.191406-20.191406v-10.097657h-30.292969v50.484375h218.097657v-50.484375zm0 0" fill="#adbbd5"/><path d="m346.835938 253.609375h60.585937v220.117187h-60.585937zm0 0" fill="#636363"/><path d="m386.214844 253.609375v183.769531c0 7.804688-6.328125 14.132813-14.136719 14.132813h-25.242187v22.214843h60.585937v-220.117187zm0 0" fill="#494949"/><path d="m407.421875 272.792969h60.582031v181.75h-60.582031zm0 0" fill="#636363"/><path d="m447.808594 272.792969v145.398437c0 7.808594-6.328125 14.136719-14.136719 14.136719h-26.25v22.214844h60.582031v-181.75zm0 0" fill="#494949"/><path d="m468.003906 319.667969c-4.183594 0-7.574218 3.394531-7.574218 7.574219v119.726562h-45.4375v-166.601562h45.4375v11.660156c0 .445312.046874.878906.121093 1.300781-.550781 3.113281.898438 6.367187 3.832031 7.960937 1.148438.628907 2.390626.921876 3.613282.921876 2.683594 0 5.285156-1.429688 6.660156-3.953126 34.816406-63.996093 45.359375-128.851562 31.328125-192.761718-13.460937-61.492188-44.949219-98.660156-46.28125-100.210938-1.121094-1.304687-2.652344-2.1875-4.34375-2.503906-1.496094-.285156-37.164063-6.78125-85.421875 3.519531-28.304688 6.039063-55.09375 16.652344-79.621094 31.535157-30.605468 18.578124-57.71875 43.871093-80.585937 75.1875-2.464844 3.378906-1.726563 8.117187 1.652343 10.582031 3.378907 2.46875 8.113282 1.726562 10.582032-1.652344 19.773437-27.082031 42.457031-49.117187 67.859375-66l206.539062 119.246094c-1.890625 30.628906-9.652343 61.371093-23.257812 92.007812-1.347657-1.230469-3.132813-1.988281-5.101563-1.988281h-53.011718v-11.609375c0-4.183594-3.390626-7.574219-7.570313-7.574219h-43.59375c.160156-.253906.324219-.5.472656-.757812 6.542969-11.332032 2.648438-25.871094-8.683593-32.414063l-7.433594-4.289062 8.078125-13.992188 7.433593 4.289063c3.605469 2.082031 7.703126 3.179687 11.847657 3.179687 8.460937 0 16.339843-4.546875 20.566406-11.863281 6.539063-11.332031 2.644531-25.871094-8.6875-32.414062l-7.429687-4.292969 3.785156-6.558594c2.089844-3.621094.851562-8.253906-2.773438-10.34375s-8.253906-.851563-10.34375 2.773437l-3.785156 6.558594-7.433594-4.292968c-3.605468-2.082032-7.703125-3.183594-11.847656-3.183594-8.460938 0-16.339844 4.546875-20.566406 11.867187-6.542969 11.332031-2.644532 25.871094 8.683594 32.414063l7.433593 4.292968-8.078125 13.992188-7.433594-4.292969c-3.605468-2.082031-7.699218-3.183593-11.847656-3.183593-8.457031 0-16.339844 4.546874-20.5625 11.871093-6.542968 11.328125-2.648437 25.867188 8.683594 32.410157l7.433594 4.292968-8.078125 13.992188-7.433594-4.292969c-3.605469-2.082031-7.703125-3.183594-11.847656-3.183594-8.457031 0-16.339844 4.546875-20.566407 11.871094-6.539062 11.328125-2.644531 25.871094 8.6875 32.410156l7.429688 4.292969-3.785156 6.554688c-2.089844 3.625-.847656 8.253906 2.773437 10.347656 1.191407.6875 2.496094 1.015625 3.78125 1.015625 2.613281 0 5.160157-1.359375 6.5625-3.789063l3.785157-6.558594 7.433593 4.292969c3.605469 2.082031 7.703125 3.179688 11.847657 3.179688h.003906c8.457031 0 16.335937-4.546875 20.5625-11.867188 6.539062-11.328125 2.644531-25.871093-8.683594-32.410156l-7.433594-4.292969 8.078125-13.992187 7.433594 4.292969c2.296875 1.324218 4.792969 2.25 7.375 2.746093v74.140625h-80.179687l-95.914063-55.378906c2.539063-41.207031 15.679687-82.574219 39.363281-123.585938 2.089844-3.625.847656-8.253906-2.773437-10.347656-3.621094-2.089844-8.253907-.847656-10.34375 2.773438-35.648438 61.738281-48.597657 124.449218-38.582031 186.539062h-14.523438v-77.242187c0-4.183594-3.390625-7.574219-7.574219-7.574219h-60.582031c-4.183594 0-7.574219 3.390625-7.574219 7.574219v11.613281h-53.007812c-4.183594 0-7.574219 3.390625-7.574219 7.570312v19.238282c0 4.179687 3.390625 7.570312 7.574219 7.570312 4.179687 0 7.570312-3.390625 7.570312-7.570312v-11.664063h45.4375v166.605469h-45.4375v-119.726562c0-4.179688-3.390625-7.574219-7.570312-7.574219-4.183594 0-7.574219 3.394531-7.574219 7.574219v127.300781c0 4.179687 3.390625 7.574219 7.574219 7.574219h53.007812v11.609374c0 4.183594 3.390625 7.574219 7.574219 7.574219h60.582031c4.183594 0 7.574219-3.390625 7.574219-7.574219v-77.242187h34.199219c13.777343 30.636719 28.65625 48.140625 29.3125 48.902344 1.121093 1.304687 2.652343 2.191406 4.339843 2.507812 1.152344.21875 12.867188 2.328125 31.371094 2.328125 25.175782 0 62.925782-3.921875 103.730469-21.824218v45.332031c0 4.179687 3.390625 7.570312 7.574219 7.570312h60.582031c4.183594 0 7.570313-3.390625 7.570313-7.570312v-11.613281h53.011718c4.183594 0 7.574219-3.390626 7.574219-7.574219v-127.300781c-.003906-4.179688-3.390625-7.574219-7.574219-7.574219zm-95.546875-298.417969c38.1875-8.257812 68.546875-5.207031 77.445313-3.992188 5.757812 7.40625 24.902344 34.023438 36.851562 74.277344l-119.632812-69.066406c1.773437-.421875 3.550781-.832031 5.335937-1.21875zm-25.628906 6.992188 145.035156 83.734374c3.140625 15.273438 4.789063 30.613282 4.945313 45.992188l-192.296875-111.023438c13.417969-7.578124 27.535156-13.816406 42.316406-18.703124zm-6.683594 129.636718c1.527344-2.648437 4.382813-4.292968 7.449219-4.292968 1.511719 0 2.949219.386718 4.273438 1.152343l13.988281 8.074219s.003906.003906.003906.003906c.003906 0 .003906 0 .007813.003906l13.984374 8.074219c4.097657 2.363281 5.507813 7.625 3.140626 11.722657-1.527344 2.648437-4.382813 4.292968-7.449219 4.292968-1.511719 0-2.949219-.386718-4.273438-1.152344l-13.949219-8.050781c-.011718-.007812-.027343-.019531-.042968-.027343-.015625-.011719-.03125-.015626-.046875-.023438l-13.945313-8.054688c-4.097656-2.363281-5.507812-7.625-3.140625-11.722656zm-20.765625 134.917969c-1.527344 2.648437-4.382812 4.292969-7.445312 4.292969-1.492188 0-2.972656-.398438-4.277344-1.152344l-13.96875-8.0625c-.007812-.007812-.015625-.011719-.023438-.015625-.007812-.003906-.015624-.007813-.023437-.011719l-13.964844-8.066406c-4.101562-2.367188-5.507812-7.625-3.144531-11.722656 1.53125-2.648438 4.382812-4.296875 7.449219-4.296875 1.492187 0 2.96875.402343 4.277343 1.15625l13.972657 8.066406c.003906.003906.011719.007813.019531.011719.003906.003906.011719.003906.015625.007812l13.972656 8.070313c4.097657 2.363281 5.507813 7.625 3.140625 11.722656zm6.128906-60.003906c-.011718-.007813-.023437-.015625-.035156-.023438-.015625-.007812-.027344-.015625-.039062-.023437l-13.953125-8.054688c-4.097657-2.367187-5.507813-7.625-3.144531-11.722656 1.53125-2.648438 4.382812-4.296875 7.449218-4.296875 1.515625 0 2.953125.390625 4.277344 1.152344l13.972656 8.070312c.003906.003907.011719.007813.019532.011719.003906.003906.011718.003906.015624.007812l13.972657 8.066407c4.097656 2.367187 5.507812 7.628906 3.144531 11.726562-1.53125 2.648438-4.382812 4.292969-7.449219 4.292969-1.515625 0-2.953125-.386719-4.277343-1.152344zm-162.777343 59.914062 66.066406 38.144531h-62.621094c-2.171875-12.683593-3.3125-25.402343-3.445312-38.144531zm-41.566407 173.449219h-45.433593v-204.972656h45.433593zm15.148438-120.15625h23.402344c.046875 0 .097656.003906.144531.003906.042969 0 .089844-.003906.132813-.003906h96.964843c.03125 0 .066407.003906.097657.003906.035156 0 .066406-.003906.101562-.003906h82.109375v35.339844h-202.953125zm73.304688 87.410156c-3.722657-4.785156-13.042969-17.585937-22.394532-36.925781h50.234375l54.886719 31.6875c-40.785156 9.714844-73.445312 6.496094-82.726562 5.238281zm103.023437-11.007812-44.894531-25.917969h71.519531v15.273437c-9.023437 4.253907-17.941406 7.765626-26.625 10.644532zm87.207031 43.753906h-45.4375v-204.972656h45.4375zm0 0"/></svg>